<svg width="24" height="24" viewBox="0 0 24 24" fill="none" xmlns="http://www.w3.org/2000/svg">
<path d="M11.9999 1.25C9.0316 1.25 6.34309 2.45406 4.39851 4.3986C3.40875 5.38837 2.61083 6.57088 2.06588 7.88493C1.3832 9.27784 0.999908 10.8442 0.999908 12.5C0.999908 18.2989 5.70092 23 11.4999 23C13.1557 23 14.7221 22.6166 16.115 21.934C17.429 21.389 18.6115 20.5912 19.6013 19.6014C21.5459 17.6568 22.75 14.9683 22.75 12C22.75 9.03169 21.5459 6.34317 19.6013 4.3986C17.6567 2.45406 14.9682 1.25 11.9999 1.25Z" fill="#EBF5FF"/>
<path fill-rule="evenodd" clip-rule="evenodd" d="M17.5304 8.46967C17.8234 8.76257 17.8234 9.23743 17.5304 9.53033L11.5304 15.5303C11.2375 15.8232 10.7626 15.8232 10.4698 15.5303L7.46976 12.5303C7.17687 12.2375 7.17687 11.7626 7.46976 11.4697C7.76265 11.1768 8.23752 11.1768 8.53042 11.4697L11.0001 13.9393L16.4698 8.46967C16.7627 8.17678 17.2375 8.17678 17.5304 8.46967Z" fill="#0855A1"/>
</svg>
