<svg width="20" height="20" viewBox="0 0 20 20" fill="none" xmlns="http://www.w3.org/2000/svg">
<path fill-rule="evenodd" clip-rule="evenodd" d="M3.6655 3.99892C5.28598 2.46375 7.52641 1.51318 10 1.51318C12.4736 1.51318 14.714 2.46375 16.3344 3.99892C17.9549 5.53411 18.9583 7.65663 18.9583 10C18.9583 12.3434 17.9549 14.4659 16.3344 16.0011C14.714 17.5362 12.4736 18.4869 10 18.4869C7.52641 18.4869 5.28598 17.5362 3.6655 16.0011C2.04505 14.4659 1.04167 12.3434 1.04167 10C1.04167 7.65663 2.04505 5.53411 3.6655 3.99892ZM10 2.69739C7.87126 2.69739 5.94502 3.51412 4.54938 4.83629C3.15376 6.15848 2.29167 7.98332 2.29167 10C2.29167 12.0168 3.15377 13.8416 4.54939 15.1637C5.94502 16.4859 7.87126 17.3027 10 17.3027C12.1288 17.3027 14.055 16.4859 15.4506 15.1637C16.8462 13.8416 17.7083 12.0168 17.7083 10C17.7083 7.98332 16.8462 6.15847 15.4506 4.83629C14.055 3.51412 12.1288 2.69739 10 2.69739Z" fill="#626E79"/>
<path fill-rule="evenodd" clip-rule="evenodd" d="M14.6086 7.21297C14.8527 7.44421 14.8527 7.81911 14.6086 8.05034L9.60861 12.7871C9.36453 13.0184 8.9688 13.0184 8.72472 12.7871L6.22472 10.4188C5.98064 10.1875 5.98064 9.81263 6.22472 9.5814C6.4688 9.35016 6.86453 9.35016 7.10861 9.5814L9.16667 11.5311L13.7248 7.21297C13.9688 6.98174 14.3646 6.98174 14.6086 7.21297Z" fill="#626E79"/>
</svg>
