<svg width="66" height="11" viewBox="0 0 66 11" fill="none" xmlns="http://www.w3.org/2000/svg">
<g clip-path="url(#clip0_1_840)">
<path d="M5.68926 0L3.95021 3.61194L0 4.19479L2.86158 7.04149L2.17754 11L5.68926 9.09502L9.20171 11L8.52271 7.04149L11.3793 4.19479L7.45095 3.61194L5.68926 0Z" fill="#FFB80F"/>
<path d="M19.3444 0L17.6054 3.61194L13.6552 4.19479L16.5167 7.04149L15.8327 11L19.3444 9.09502L22.8569 11L22.1779 7.04149L25.0345 4.19479L21.1061 3.61194L19.3444 0Z" fill="#FFB80F"/>
<path d="M32.9996 0L31.2606 3.61194L27.3104 4.19479L30.1719 7.04149L29.4879 11L32.9996 9.09502L36.5121 11L35.8331 7.04149L38.6897 4.19479L34.7613 3.61194L32.9996 0Z" fill="#FFB80F"/>
<path d="M46.6548 0L44.9157 3.61194L40.9655 4.19479L43.8271 7.04149L43.1431 11L46.6548 9.09502L50.1672 11L49.4882 7.04149L52.3448 4.19479L48.4165 3.61194L46.6548 0Z" fill="#FFB80F"/>
<path fill-rule="evenodd" clip-rule="evenodd" d="M60.6654 0.223529C60.5983 0.0862699 60.46 -0.000392342 60.3087 1.33562e-06C60.1579 0.000394982 60.0202 0.0877758 59.9536 0.225384L58.4277 3.38229L54.9607 3.89202C54.8112 3.91399 54.687 4.02003 54.6402 4.16559C54.5934 4.31116 54.6322 4.47103 54.7401 4.57806L57.2522 7.06804L56.6523 10.5279C56.626 10.6795 56.6873 10.833 56.8102 10.9233C56.933 11.0137 57.0963 11.0251 57.23 10.9527L60.3098 9.28801L63.3908 10.9527C63.5245 11.025 63.6872 11.0137 63.8101 10.9234C63.933 10.8332 63.9944 10.6799 63.9683 10.5284L63.3725 7.06804L65.8805 4.57781C65.9886 4.47077 66.0273 4.31103 65.9807 4.16558C65.9335 4.02013 65.8094 3.91414 65.6604 3.89206L62.2119 3.38228L60.6654 0.223529ZM60.2836 8.43045C60.3565 8.4255 60.4304 8.44095 60.4964 8.47681L63.0465 9.85467L62.5549 6.99786C62.5322 6.86729 62.5749 6.73392 62.6682 6.64113L64.7529 4.57128L61.8915 4.14831C61.7624 4.12926 61.6509 4.0473 61.5934 3.929L60.3377 1.36471L60.2836 8.43045Z" fill="#FFB80F"/>
</g>
<defs>
<clipPath id="clip0_1_840">
<rect width="66" height="11" fill="white"/>
</clipPath>
</defs>
</svg>
