<svg width="10" height="10" viewBox="0 0 10 10" fill="none" xmlns="http://www.w3.org/2000/svg">
<g clip-path="url(#clip0_1_778)">
<path fill-rule="evenodd" clip-rule="evenodd" d="M2.07758 2.02107C2.86348 1.25899 3.95006 0.787109 5.14972 0.787109C6.34938 0.787109 7.43594 1.25899 8.22184 2.02107C9.00775 2.78316 9.49438 3.83682 9.49438 5.00012C9.49438 6.16342 9.00775 7.21706 8.22184 7.97915C7.43594 8.74124 6.34938 9.21312 5.14972 9.21312C3.95006 9.21312 2.86348 8.74124 2.07758 7.97915C1.29168 7.21706 0.805054 6.16342 0.805054 5.00012C0.805054 3.83682 1.29168 2.78316 2.07758 2.02107ZM5.14972 1.37497C4.11731 1.37497 3.18313 1.78041 2.50624 2.43675C1.82939 3.09312 1.41128 3.999 1.41128 5.00012C1.41128 6.00124 1.82939 6.90712 2.50625 7.56348C3.18313 8.21982 4.11731 8.62527 5.14972 8.62527C6.18213 8.62527 7.11631 8.21982 7.79319 7.56348C8.47003 6.90712 8.88816 6.00124 8.88816 5.00012C8.88816 3.999 8.47003 3.09309 7.79319 2.43675C7.11631 1.78041 6.18213 1.37497 5.14972 1.37497Z" fill="#BABEC3"/>
<path fill-rule="evenodd" clip-rule="evenodd" d="M5.14996 2.45264C5.42896 2.45264 5.65515 2.67197 5.65515 2.94252C5.65515 3.21308 5.42896 3.43241 5.14996 3.43241C4.87096 3.43241 4.64478 3.21308 4.64478 2.94252C4.64478 2.67197 4.87096 2.45264 5.14996 2.45264Z" fill="#BABEC3"/>
<path fill-rule="evenodd" clip-rule="evenodd" d="M4.54346 4.21627C4.54346 4.05394 4.67914 3.92236 4.84655 3.92236H5.25071C5.41811 3.92236 5.55383 4.05394 5.55383 4.21627V6.95964C5.55383 7.12197 5.41811 7.25358 5.25071 7.25358C5.0833 7.25358 4.94761 7.12197 4.94761 6.95964V4.51021H4.84655C4.67914 4.51021 4.54346 4.37861 4.54346 4.21627Z" fill="#BABEC3"/>
<path fill-rule="evenodd" clip-rule="evenodd" d="M4.24042 6.95947C4.24042 6.79713 4.37614 6.66553 4.54354 6.66553H5.95807C6.12548 6.66553 6.2612 6.79713 6.2612 6.95947C6.2612 7.1218 6.12548 7.25338 5.95807 7.25338H4.54354C4.37614 7.25338 4.24042 7.1218 4.24042 6.95947Z" fill="#BABEC3"/>
</g>
<defs>
<clipPath id="clip0_1_778">
<rect width="10" height="10" fill="white"/>
</clipPath>
</defs>
</svg>
