<svg width="10" height="10" viewBox="0 0 10 10" fill="none" xmlns="http://www.w3.org/2000/svg">
<path fill-rule="evenodd" clip-rule="evenodd" d="M5.14996 2.45264C5.42896 2.45264 5.65515 2.67197 5.65515 2.94252C5.65515 3.21308 5.42896 3.43241 5.14996 3.43241C4.87096 3.43241 4.64478 3.21308 4.64478 2.94252C4.64478 2.67197 4.87096 2.45264 5.14996 2.45264Z" fill="#BABEC3"/>
<path fill-rule="evenodd" clip-rule="evenodd" d="M4.54346 4.21615C4.54346 4.05382 4.67914 3.92224 4.84655 3.92224H5.25071C5.41811 3.92224 5.55383 4.05382 5.55383 4.21615V6.95951C5.55383 7.12185 5.41811 7.25345 5.25071 7.25345C5.0833 7.25345 4.94761 7.12185 4.94761 6.95951V4.51009H4.84655C4.67914 4.51009 4.54346 4.37848 4.54346 4.21615Z" fill="#BABEC3"/>
<path fill-rule="evenodd" clip-rule="evenodd" d="M4.24042 6.95959C4.24042 6.79726 4.37614 6.66565 4.54354 6.66565H5.95807C6.12548 6.66565 6.2612 6.79726 6.2612 6.95959C6.2612 7.12192 6.12548 7.2535 5.95807 7.2535H4.54354C4.37614 7.2535 4.24042 7.12192 4.24042 6.95959Z" fill="#BABEC3"/>
</svg>
