<svg width="20" height="20" viewBox="0 0 20 20" fill="none" xmlns="http://www.w3.org/2000/svg">
<path fill-rule="evenodd" clip-rule="evenodd" d="M3.91887 3.66558C5.47453 2.04513 7.62535 1.04175 9.99999 1.04175C12.3746 1.04175 14.5254 2.04513 16.0811 3.66558C17.6367 5.28606 18.6 7.5265 18.6 10.0001C18.6 12.4737 17.6367 14.7141 16.0811 16.3346C14.5254 17.955 12.3746 18.9584 9.99999 18.9584C7.62535 18.9584 5.47453 17.955 3.91887 16.3346C2.36324 14.7141 1.39999 12.4737 1.39999 10.0001C1.39999 7.5265 2.36324 5.28606 3.91887 3.66558ZM9.99999 2.29175C7.95639 2.29175 6.10722 3.15385 4.7674 4.54946C3.4276 5.94511 2.59999 7.87133 2.59999 10.0001C2.59999 12.1288 3.42761 14.0551 4.7674 15.4507C6.10722 16.8463 7.95639 17.7084 9.99999 17.7084C12.0436 17.7084 13.8928 16.8463 15.2326 15.4507C16.5724 14.0551 17.4 12.1288 17.4 10.0001C17.4 7.87133 16.5724 5.94511 15.2326 4.54946C13.8928 3.15385 12.0436 2.29175 9.99999 2.29175Z" fill="#626E79"/>
<path fill-rule="evenodd" clip-rule="evenodd" d="M10 4.58325C10.5523 4.58325 11 5.04963 11 5.62492C11 6.20021 10.5523 6.66659 10 6.66659C9.44776 6.66659 9 6.20021 9 5.62492C9 5.04963 9.44776 4.58325 10 4.58325Z" fill="#626E79"/>
<path fill-rule="evenodd" clip-rule="evenodd" d="M8.79999 8.33325C8.79999 7.98807 9.06863 7.70825 9.39999 7.70825H10.2C10.5313 7.70825 10.8 7.98807 10.8 8.33325V14.1666C10.8 14.5118 10.5313 14.7916 10.2 14.7916C9.86863 14.7916 9.59999 14.5118 9.59999 14.1666V8.95827H9.39999C9.06863 8.95827 8.79999 8.67844 8.79999 8.33325Z" fill="#626E79"/>
<path fill-rule="evenodd" clip-rule="evenodd" d="M8.20007 14.1667C8.20007 13.8216 8.46871 13.5417 8.80007 13.5417H11.6001C11.9314 13.5417 12.2001 13.8216 12.2001 14.1667C12.2001 14.5119 11.9314 14.7917 11.6001 14.7917H8.80007C8.46871 14.7917 8.20007 14.5119 8.20007 14.1667Z" fill="#626E79"/>
</svg>
